#!OML:ASF H:\ManfredETheater\Project 1\Capture day 1\Session 1\subject.ASF
:FULLY-SPECIFIED
:DEGREES
285
root -10.4695 16.706 -28.4077 -156.981 -25.9662 -186.963
lowerback 12.5273 -1.60939 -7.78618
upperback -1.22261 -3.38997 -0.0989663
thorax -7.92519 -1.32565 4.92844
lowerneck -18.3016 -1.20391 -2.50763
upperneck 4.87619 -1.70384 4.96886
head 4.45586 -0.641445 1.80001
rclavicle -6.14959e-014 -1.94374e-014
rhumerus -47.6909 -6.88386 -82.9931
rradius 53.7066
rwrist -13.7309
rhand -29.2613 -4.57959
rfingers 7.12502
rthumb -2.60409 -34.5434
lclavicle -6.14959e-014 -1.94374e-014
lhumerus -33.4736 -12.5516 98.0387
lradius 78.0531
lwrist 4.5524
lhand -23.2541 -12.6615
lfingers 7.12502
lthumb 3.19773 17.2942
rfemur -59.735 -10.9856 16.6741
rtibia 83.3233
rfoot -18.5149 -7.77025
rtoes -38.4176
lfemur -12.6986 -4.74876 -29.7736
ltibia 36.1628
lfoot -38.1955 9.15993
ltoes 2.07746
286
root -10.5303 16.6735 -28.5485 -156.63 -25.6842 -187.088
lowerback 12.6766 -1.65188 -7.99621
upperback -1.16952 -3.49569 -0.120105
thorax -7.92877 -1.37101 5.04912
lowerneck -18.7028 -1.06459 -2.4401
upperneck 4.83145 -1.54739 5.00985
head 4.49782 -0.562412 1.81575
rclavicle 2.24502e-014 -1.73067e-014
rhumerus -48.3459 -6.84704 -82.8391
rradius 53.5188
rwrist -13.938
rhand -29.0917 -4.32558
rfingers 7.12502
rthumb -2.44023 -34.2914
lclavicle 2.24502e-014 -1.73067e-014
lhumerus -32.8179 -12.4369 97.7942
lradius 79.5859
lwrist 4.50627
lhand -23.2799 -12.7202
lfingers 7.12502
lthumb 3.17282 17.236
rfemur -61.5825 -10.9734 17.0114
rtibia 83.0233
rfoot -18.8478 -7.56181
rtoes -38.6056
lfemur -12.111 -4.49876 -29.9541
ltibia 35.5004
lfoot -38.2041 9.1239
ltoes 1.52087
287
root -10.592 16.6401 -28.6937 -156.266 -25.4458 -187.211
lowerback 12.8182 -1.70798 -8.18623
upperback -1.11722 -3.61535 -0.132857
thorax -7.92642 -1.42406 5.16978
lowerneck -19.0957 -0.932985 -2.37096
upperneck 4.76845 -1.40281 5.04732
head 4.53297 -0.490289 1.82943
rclavicle -1.10959e-013 1.48095e-014
rhumerus -49.109 -6.67933 -82.7293
rradius 53.5024
rwrist -14.2068
rhand -28.9667 -3.94607
rfingers 7.12502
rthumb -2.31956 -33.9132
lclavicle -1.10959e-013 1.48095e-014
lhumerus -32.1555 -12.2924 97.5453
lradius 81.349
lwrist 4.56557
lhand -23.3981 -12.6762
lfingers 7.12502
lthumb 3.05861 17.2817
rfemur -63.3864 -10.9488 17.3563
rtibia 82.5798
rfoot -19.1766 -7.35071
rtoes -38.7765
lfemur -11.5153 -4.24405 -30.1041
ltibia 34.8215
lfoot -38.2045 9.00862
ltoes 0.972033
288
root -10.6535 16.6054 -28.8427 -155.881 -25.2389 -187.336
lowerback 12.9569 -1.7689 -8.37318
upperback -1.06865 -3.7403 -0.135842
thorax -7.92439 -1.47939 5.30031
lowerneck -19.4762 -0.814816 -2.30284
upperneck 4.68077 -1.27718 5.08217
head 4.55895 -0.428782 1.84098
rclavicle 1.67228e-014 2.1419e-014
rhumerus -50.0033 -6.38177 -82.6686
rradius 53.7269
rwrist -14.5629
rhand -28.8999 -3.48073
rfingers 7.12502
rthumb -2.255 -33.4486
lclavicle 1.67228e-014 2.1419e-014
lhumerus -31.4847 -12.1349 97.3037
lradius 83.3629
lwrist 4.7809
lhand -23.5556 -12.4914
lfingers 7.12502
lthumb 2.9065 17.4686
rfemur -65.1589 -10.8963 17.7003
rtibia 82.0115
rfoot -19.472 -7.16491
rtoes -38.8985
lfemur -10.927 -3.98878 -30.2279
ltibia 34.1288
lfoot -38.1896 8.82793
ltoes 0.440179
289
root -10.7159 16.5698 -28.9963 -155.474 -25.086 -187.464
lowerback 13.0876 -1.84119 -8.53071
upperback -1.02709 -3.87426 -0.128234
thorax -7.92408 -1.53964 5.42724
lowerneck -19.8347 -0.716674 -2.23434
upperneck 4.56923 -1.17862 5.10878
head 4.5748 -0.382217 1.84749
rclavicle -1.20016e-014 -5.06404e-014
rhumerus -51.0636 -5.95833 -82.6571
rradius 54.248
rwrist -15.0098
rhand -28.9096 -2.94706
rfingers 7.12502
rthumb -2.26441 -32.9148
lclavicle -1.20016e-014 -5.06404e-014
lhumerus -30.8142 -11.9872 97.0835
lradius 85.6324
lwrist 5.17468
lhand -23.7473 -12.1781
lfingers 7.12502
lthumb 2.72142 17.7843
rfemur -66.8797 -10.8523 18.047
rtibia 81.3357
rfoot -19.7362 -7.03742
rtoes -39.0237
lfemur -10.3368 -3.75068 -30.3197
ltibia 33.4191
lfoot -38.1631 8.57626
ltoes -0.0582445
290
root -10.7799 16.5333 -29.1546 -155.053 -25.0023 -187.585
lowerback 13.2094 -1.92783 -8.63602
upperback -0.988438 -4.01641 -0.105149
thorax -7.92166 -1.60545 5.54268
lowerneck -20.1794 -0.640114 -2.16779
upperneck 4.43795 -1.10849 5.1259
head 4.58306 -0.351269 1.84872
rclavicle 4.94477e-015 1.18277e-014
rhumerus -52.3046 -5.42491 -82.6917
rradius 55.1139
rwrist -15.5318
rhand -28.9993 -2.37589
rfingers 7.12502
rthumb -2.35106 -32.3427
lclavicle 4.94477e-015 1.18277e-014
lhumerus -30.1359 -11.8661 96.893
lradius 88.1706
lwrist 5.72434
lhand -23.956 -11.7319
lfingers 7.12502
lthumb 2.51989 18.233
rfemur -68.5348 -10.8328 18.406
rtibia 80.5748
rfoot -19.9452 -6.96147
rtoes -39.0742
lfemur -9.73902 -3.53164 -30.3669
ltibia 32.6958
lfoot -38.1183 8.2717
ltoes -0.575318
291
root -10.8452 16.4959 -29.3178 -154.621 -24.9807 -187.702
lowerback 13.3331 -2.02386 -8.69482
upperback -0.959425 -4.16214 -0.066288
thorax -7.93115 -1.67326 5.65034
lowerneck -20.5038 -0.587292 -2.09263
upperneck 4.29118 -1.07009 5.11703
head 4.58402 -0.338277 1.83733
rclavicle 8.49804e-015 -1.33186e-014
rhumerus -53.7526 -4.80221 -82.7648
rradius 56.3569
rwrist -16.0989
rhand -29.1571 -1.7813
rfingers 7.12502
rthumb -2.50343 -31.7464
lclavicle 8.49804e-015 -1.33186e-014
lhumerus -29.4595 -11.7926 96.7388
lradius 90.9646
lwrist 6.42523
lhand -24.1693 -11.209
lfingers 7.12502
lthumb 2.31385 18.7582
rfemur -70.1168 -10.8317 18.7675
rtibia 79.7536
rfoot -20.0992 -6.94247
rtoes -39.088
lfemur -9.13074 -3.33984 -30.374
ltibia 31.9601
lfoot -38.05 7.91797
ltoes -1.09271
292
root -10.9128 16.4576 -29.4862 -154.189 -25.0339 -187.804
lowerback 13.446 -2.13407 -8.68597
upperback -0.929389 -4.31159 -0.00490759
thorax -7.93475 -1.74517 5.74443
lowerneck -20.828 -0.551874 -2.02505
upperneck 4.13862 -1.05227 5.09214
head 4.58349 -0.337122 1.82013
rclavicle -3.33461e-014 -9.93923e-016
rhumerus -55.4014 -4.11451 -82.864
rradius 57.997
rwrist -16.674
rhand -29.3578 -1.17729
rfingers 7.12502
rthumb -2.6973 -31.14
lclavicle -3.33461e-014 -9.93923e-016
lhumerus -28.7785 -11.7768 96.6244
lradius 94.0232
lwrist 7.24315
lhand -24.3667 -10.5921
lfingers 7.12502
lthumb 2.12325 19.3771
rfemur -71.6098 -10.8653 19.1432
rtibia 78.9056
rfoot -20.2146 -6.96055
rtoes -39.091
lfemur -8.51196 -3.18694 -30.3275
ltibia 31.2378
lfoot -37.9627 7.52856
ltoes -1.63902
